<?xml version="1.0" standalone="no"?>
<!DOCTYPE svg PUBLIC "-//W3C//DTD SVG 20010904//EN"
 "http://www.w3.org/TR/2001/REC-SVG-20010904/DTD/svg10.dtd">
<svg version="1.0" xmlns="http://www.w3.org/2000/svg"
 width="500.000000pt" height="500.000000pt" viewBox="0 0 500.000000 500.000000"
 preserveAspectRatio="xMidYMid meet">
<metadata>
Created by potrace 1.16, written by Peter Selinger 2001-2019
</metadata>
<g transform="translate(0.000000,500.000000) scale(0.100000,-0.100000)"
fill="#000000" stroke="none">
<path d="M1705 3909 c-4 -6 0 -29 8 -52 26 -70 35 -138 31 -222 -6 -141 -50
-262 -153 -422 -106 -166 -136 -266 -129 -435 3 -81 10 -116 30 -166 22 -53
23 -62 10 -56 -31 13 -116 34 -139 34 -30 0 -29 -5 9 -79 34 -67 39 -113 24
-228 -8 -55 -7 -63 8 -63 11 0 16 9 16 29 0 16 9 39 20 52 l19 24 -14 -48 c-8
-26 -11 -45 -6 -43 5 3 11 19 14 36 8 37 39 41 73 9 14 -14 24 -17 29 -10 3 7
3 10 -2 9 -5 -2 -20 8 -33 21 l-25 23 31 -6 c23 -5 34 -2 49 14 10 11 24 20
32 20 8 0 2 -11 -15 -27 -15 -16 -18 -20 -7 -10 12 9 27 17 33 17 7 0 12 5 12
11 0 6 8 9 19 6 40 -10 72 35 33 47 -31 10 -60 49 -70 94 -9 38 -8 45 12 65
13 12 31 45 41 72 10 28 22 55 27 62 12 15 4 28 -39 66 -41 36 -43 69 -9 135
43 84 131 152 196 152 59 0 99 -24 120 -74 l19 -42 111 2 c98 2 114 0 131 -17
24 -24 24 -46 -1 -110 -21 -56 -19 -69 10 -69 27 0 33 -29 14 -81 -16 -44 -16
-49 0 -88 24 -61 10 -81 -54 -81 -43 0 -50 -3 -50 -20 0 -31 49 -117 82 -145
39 -33 81 -33 107 0 34 44 36 81 7 116 -37 44 -35 91 10 165 58 97 124 153
201 169 37 7 110 -10 136 -33 28 -25 46 -6 74 73 33 94 37 112 24 119 -14 9
-85 -28 -138 -71 l-43 -34 0 115 c0 132 -12 201 -44 248 -29 43 -53 48 -62 11
-10 -46 -49 -105 -103 -157 -28 -28 -53 -48 -55 -45 -2 2 -9 40 -15 84 -52
375 -241 656 -548 815 -67 35 -60 33 -68 19z"/>
<path d="M1627 3670 c-68 -43 -81 -77 -73 -182 8 -93 16 -114 40 -105 30 12
53 66 59 141 4 40 15 94 26 119 29 66 18 72 -52 27z"/>
<path d="M2350 3654 c-61 -70 -64 -106 -14 -201 48 -92 56 -99 78 -74 23 26
24 81 3 156 -12 40 -16 75 -11 108 8 59 -10 63 -56 11z"/>
<path d="M1156 3074 c-20 -53 11 -208 57 -285 33 -54 113 -124 156 -136 34 -9
42 12 39 104 -3 91 -17 120 -79 161 -53 35 -105 89 -123 126 -18 38 -42 52
-50 30z"/>
<path d="M2007 2909 c-11 -6 -30 -9 -43 -6 -13 2 -24 0 -24 -6 0 -5 -38 -70
-85 -143 -81 -128 -115 -193 -115 -218 0 -6 9 7 19 29 18 40 18 40 30 16 7
-13 10 -37 7 -53 -5 -26 -3 -29 12 -23 66 25 143 47 209 59 43 8 72 15 66 15
-16 1 -17 27 -3 36 6 4 19 1 28 -6 16 -13 16 -12 0 6 -9 11 -20 32 -23 48 -4
15 -10 27 -14 26 -3 0 -19 -21 -36 -47 -24 -38 -36 -48 -62 -50 -47 -5 -83 34
-83 88 0 71 79 199 139 227 14 7 19 12 11 12 -8 0 -23 -4 -33 -10z"/>
<path d="M2496 2231 c-31 -59 -14 -156 35 -207 32 -33 32 -34 9 -34 -13 0 -21
-2 -18 -5 3 -3 30 -3 61 1 45 5 60 12 73 32 15 23 15 27 -5 67 -14 29 -31 47
-50 53 -31 11 -51 39 -60 86 -9 40 -27 43 -45 7z m92 -101 c17 -8 32 -20 32
-26 0 -6 9 -23 20 -37 l20 -25 -25 -16 c-35 -23 -60 -20 -97 13 -29 25 -32 35
-36 94 -6 95 3 110 31 56 14 -27 35 -50 55 -59z"/>
</g>
</svg>
